<svg xmlns="http://www.w3.org/2000/svg" xmlns:xlink="http://www.w3.org/1999/xlink" version="1.1" width="256" height="256" viewBox="0 0 256 256" xml:space="preserve">

<defs>
</defs>
<g style="stroke: none; stroke-width: 0; stroke-dasharray: none; stroke-linecap: butt; stroke-linejoin: miter; stroke-miterlimit: 10; fill: none; fill-rule: nonzero; opacity: 1;" transform="translate(1.4065934065934016 1.4065934065934016) scale(2.81 2.81)" >
	<path d="M 24.732 73.521 H 14.707 c -0.552 0 -1 -0.447 -1 -1 V 49.905 c 0 -0.553 0.448 -1 1 -1 s 1 0.447 1 1 v 21.616 h 9.026 c 0.552 0 1 0.447 1 1 S 25.285 73.521 24.732 73.521 z" style="stroke: none; stroke-width: 1; stroke-dasharray: none; stroke-linecap: butt; stroke-linejoin: miter; stroke-miterlimit: 10; fill: rgb(0,0,0); fill-rule: nonzero; opacity: 1;" transform=" matrix(1 0 0 1 0 0) " stroke-linecap="round" />
	<path d="M 33.269 73.521 c -0.552 0 -1 -0.447 -1 -1 V 49.905 c 0 -0.553 0.448 -1 1 -1 s 1 0.447 1 1 v 22.616 C 34.269 73.074 33.821 73.521 33.269 73.521 z" style="stroke: none; stroke-width: 1; stroke-dasharray: none; stroke-linecap: butt; stroke-linejoin: miter; stroke-miterlimit: 10; fill: rgb(0,0,0); fill-rule: nonzero; opacity: 1;" transform=" matrix(1 0 0 1 0 0) " stroke-linecap="round" />
	<path d="M 75.294 73.521 H 65.268 c -0.553 0 -1 -0.447 -1 -1 V 49.905 c 0 -0.553 0.447 -1 1 -1 h 10.026 c 0.553 0 1 0.447 1 1 s -0.447 1 -1 1 h -9.026 v 20.616 h 9.026 c 0.553 0 1 0.447 1 1 S 75.847 73.521 75.294 73.521 z" style="stroke: none; stroke-width: 1; stroke-dasharray: none; stroke-linecap: butt; stroke-linejoin: miter; stroke-miterlimit: 10; fill: rgb(0,0,0); fill-rule: nonzero; opacity: 1;" transform=" matrix(1 0 0 1 0 0) " stroke-linecap="round" />
	<path d="M 71.825 62.213 h -6.558 c -0.553 0 -1 -0.447 -1 -1 s 0.447 -1 1 -1 h 6.558 c 0.553 0 1 0.447 1 1 S 72.378 62.213 71.825 62.213 z" style="stroke: none; stroke-width: 1; stroke-dasharray: none; stroke-linecap: butt; stroke-linejoin: miter; stroke-miterlimit: 10; fill: rgb(0,0,0); fill-rule: nonzero; opacity: 1;" transform=" matrix(1 0 0 1 0 0) " stroke-linecap="round" />
	<path d="M 49.307 73.521 L 49.307 73.521 c -0.423 0 -0.8 -0.267 -0.942 -0.665 l -8.05 -22.616 c -0.186 -0.52 0.086 -1.092 0.606 -1.277 c 0.519 -0.184 1.092 0.086 1.277 0.607 l 7.108 19.969 l 7.108 -19.969 c 0.186 -0.521 0.76 -0.792 1.277 -0.607 c 0.521 0.186 0.792 0.758 0.607 1.277 l -8.051 22.616 C 50.106 73.255 49.729 73.521 49.307 73.521 z" style="stroke: none; stroke-width: 1; stroke-dasharray: none; stroke-linecap: butt; stroke-linejoin: miter; stroke-miterlimit: 10; fill: rgb(0,0,0); fill-rule: nonzero; opacity: 1;" transform=" matrix(1 0 0 1 0 0) " stroke-linecap="round" />
	<path d="M 45 23.008 c -2.28 0 -4.136 -1.855 -4.136 -4.136 S 42.72 14.737 45 14.737 s 4.136 1.855 4.136 4.136 S 47.28 23.008 45 23.008 z M 45 16.737 c -1.178 0 -2.136 0.958 -2.136 2.136 s 0.958 2.136 2.136 2.136 s 2.136 -0.958 2.136 -2.136 S 46.178 16.737 45 16.737 z" style="stroke: none; stroke-width: 1; stroke-dasharray: none; stroke-linecap: butt; stroke-linejoin: miter; stroke-miterlimit: 10; fill: rgb(0,0,0); fill-rule: nonzero; opacity: 1;" transform=" matrix(1 0 0 1 0 0) " stroke-linecap="round" />
	<path d="M 38.283 26.59 c -0.256 0 -0.512 -0.098 -0.707 -0.293 c -1.983 -1.983 -3.076 -4.62 -3.076 -7.425 c 0 -2.805 1.092 -5.441 3.076 -7.424 c 0.391 -0.391 1.023 -0.391 1.414 0 s 0.391 1.024 0 1.414 c -1.605 1.605 -2.49 3.74 -2.49 6.01 c 0 2.271 0.884 4.405 2.49 6.011 c 0.391 0.39 0.391 1.023 0 1.414 C 38.794 26.492 38.539 26.59 38.283 26.59 z" style="stroke: none; stroke-width: 1; stroke-dasharray: none; stroke-linecap: butt; stroke-linejoin: miter; stroke-miterlimit: 10; fill: rgb(0,0,0); fill-rule: nonzero; opacity: 1;" transform=" matrix(1 0 0 1 0 0) " stroke-linecap="round" />
	<path d="M 51.718 26.59 c -0.256 0 -0.512 -0.098 -0.707 -0.293 c -0.391 -0.391 -0.391 -1.023 0 -1.414 c 3.314 -3.314 3.314 -8.707 0 -12.021 c -0.391 -0.391 -0.391 -1.023 0 -1.414 s 1.023 -0.391 1.414 0 c 1.983 1.983 3.075 4.62 3.075 7.424 c 0 2.805 -1.092 5.442 -3.075 7.425 C 52.229 26.492 51.974 26.59 51.718 26.59 z" style="stroke: none; stroke-width: 1; stroke-dasharray: none; stroke-linecap: butt; stroke-linejoin: miter; stroke-miterlimit: 10; fill: rgb(0,0,0); fill-rule: nonzero; opacity: 1;" transform=" matrix(1 0 0 1 0 0) " stroke-linecap="round" />
	<path d="M 33.006 31.866 c -0.256 0 -0.512 -0.098 -0.707 -0.293 c -3.393 -3.393 -5.261 -7.903 -5.261 -12.701 c 0 -4.798 1.869 -9.309 5.261 -12.701 c 0.391 -0.391 1.023 -0.391 1.414 0 s 0.391 1.023 0 1.414 c -3.015 3.015 -4.675 7.023 -4.675 11.287 c 0 4.263 1.661 8.272 4.675 11.287 c 0.391 0.391 0.391 1.023 0 1.414 C 33.518 31.769 33.262 31.866 33.006 31.866 z" style="stroke: none; stroke-width: 1; stroke-dasharray: none; stroke-linecap: butt; stroke-linejoin: miter; stroke-miterlimit: 10; fill: rgb(0,0,0); fill-rule: nonzero; opacity: 1;" transform=" matrix(1 0 0 1 0 0) " stroke-linecap="round" />
	<path d="M 56.994 31.866 c -0.256 0 -0.512 -0.098 -0.707 -0.293 c -0.391 -0.39 -0.391 -1.023 0 -1.414 c 6.223 -6.224 6.223 -16.35 0 -22.573 c -0.391 -0.391 -0.391 -1.023 0 -1.414 s 1.023 -0.391 1.414 0 c 7.003 7.003 7.003 18.398 0 25.401 C 57.506 31.769 57.25 31.866 56.994 31.866 z" style="stroke: none; stroke-width: 1; stroke-dasharray: none; stroke-linecap: butt; stroke-linejoin: miter; stroke-miterlimit: 10; fill: rgb(0,0,0); fill-rule: nonzero; opacity: 1;" transform=" matrix(1 0 0 1 0 0) " stroke-linecap="round" />
	<path d="M 81.264 84.121 H 8.737 C 3.919 84.121 0 80.202 0 75.385 V 47.042 c 0 -4.817 3.919 -8.737 8.737 -8.737 h 72.527 c 4.817 0 8.736 3.919 8.736 8.737 v 28.343 C 90 80.202 86.081 84.121 81.264 84.121 z M 8.737 40.305 C 5.022 40.305 2 43.327 2 47.042 v 28.343 c 0 3.715 3.022 6.736 6.737 6.736 h 72.527 c 3.715 0 6.736 -3.021 6.736 -6.736 V 47.042 c 0 -3.715 -3.021 -6.737 -6.736 -6.737 H 8.737 z" style="stroke: none; stroke-width: 1; stroke-dasharray: none; stroke-linecap: butt; stroke-linejoin: miter; stroke-miterlimit: 10; fill: rgb(0,0,0); fill-rule: nonzero; opacity: 1;" transform=" matrix(1 0 0 1 0 0) " stroke-linecap="round" />
</g>
</svg>