<svg xmlns="http://www.w3.org/2000/svg" xmlns:xlink="http://www.w3.org/1999/xlink" version="1.1" width="256" height="256" viewBox="0 0 256 256" xml:space="preserve">

<defs>
</defs>
<g style="stroke: none; stroke-width: 0; stroke-dasharray: none; stroke-linecap: butt; stroke-linejoin: miter; stroke-miterlimit: 10; fill: none; fill-rule: nonzero; opacity: 1;" transform="translate(1.4065934065934016 1.4065934065934016) scale(2.81 2.81)" >
	<path d="M 85.296 44.37 h -23.5 V 26.927 c 0 -1.933 -1.567 -3.5 -3.5 -3.5 H 47.843 v -10.49 C 47.843 5.804 42.199 0 35.262 0 h -7.523 c -6.937 0 -12.581 5.804 -12.581 12.937 v 10.49 H 4.704 c -1.933 0 -3.5 1.567 -3.5 3.5 v 47.037 C 1.204 82.807 8.397 90 17.24 90 h 28.52 c 2.463 0 4.849 -0.558 7.023 -1.62 c 1.73 1.022 3.74 1.62 5.891 1.62 h 18.493 c 6.412 0 11.629 -5.217 11.629 -11.629 V 47.87 C 88.796 45.938 87.229 44.37 85.296 44.37 z M 22.157 12.937 C 22.157 9.664 24.661 7 27.738 7 h 7.523 c 3.078 0 5.581 2.664 5.581 5.937 v 10.49 H 22.157 V 12.937 z M 17.24 83 c -4.983 0 -9.037 -4.054 -9.037 -9.036 V 30.427 h 6.954 v 6.018 c 0 1.933 1.567 3.5 3.5 3.5 s 3.5 -1.567 3.5 -3.5 v -6.018 h 18.686 v 6.018 c 0 1.933 1.567 3.5 3.5 3.5 c 1.933 0 3.5 -1.567 3.5 -3.5 v -6.018 h 6.953 V 44.37 h -4.251 c -1.933 0 -3.5 1.567 -3.5 3.5 v 30.501 c 0 1.538 0.307 3.004 0.852 4.348 C 47.201 82.888 46.49 83 45.76 83 H 17.24 z M 81.796 78.371 c 0 2.553 -2.076 4.629 -4.629 4.629 H 58.674 c -2.553 0 -4.629 -2.076 -4.629 -4.629 V 51.37 h 27.751 V 78.371 z" style="stroke: none; stroke-width: 1; stroke-dasharray: none; stroke-linecap: butt; stroke-linejoin: miter; stroke-miterlimit: 10; fill: rgb(0,0,0); fill-rule: nonzero; opacity: 1;" transform=" matrix(1 0 0 1 0 0) " stroke-linecap="round" />
	<path d="M 69.824 75.751 h -3.808 c -4.465 0 -8.097 -3.713 -8.097 -8.276 v -7.957 c 0 -1.933 1.567 -3.5 3.5 -3.5 s 3.5 1.567 3.5 3.5 v 7.957 c 0 0.704 0.492 1.276 1.097 1.276 h 3.808 c 0.604 0 1.096 -0.572 1.096 -1.276 v -7.957 c 0 -1.933 1.567 -3.5 3.5 -3.5 s 3.5 1.567 3.5 3.5 v 7.957 C 77.92 72.038 74.288 75.751 69.824 75.751 z" style="stroke: none; stroke-width: 1; stroke-dasharray: none; stroke-linecap: butt; stroke-linejoin: miter; stroke-miterlimit: 10; fill: rgb(0,0,0); fill-rule: nonzero; opacity: 1;" transform=" matrix(1 0 0 1 0 0) " stroke-linecap="round" />
</g>
</svg>